<?xml version="1.0" encoding="iso-8859-1"?>
<!-- Generator: Adobe Illustrator 17.1.0, SVG Export Plug-In . SVG Version: 6.00 Build 0)  -->
<!DOCTYPE svg PUBLIC "-//W3C//DTD SVG 1.1//EN" "http://www.w3.org/Graphics/SVG/1.1/DTD/svg11.dtd">
<svg xmlns="http://www.w3.org/2000/svg" xmlns:xlink="http://www.w3.org/1999/xlink" version="1.1" id="Capa_1" x="0px" y="0px" viewBox="0 0 280.887 280.887" style="enable-background:new 0 0 280.887 280.887;" xml:space="preserve" width="512px" height="512px">
<g>
	<path d="M280.887,57.761c0-21.688-17.645-39.333-39.332-39.333c-21.689,0-39.334,17.645-39.334,39.333   c0,19.236,13.885,35.28,32.156,38.665l-14.191,71.35c-0.641,3.219-4.219,7.146-7.363,8.083l-16.7,4.975   c0.983-5.583,1.499-11.324,1.499-17.185c0-54.483-44.326-98.81-98.811-98.81S0,109.165,0,163.648   c0,54.484,44.326,98.811,98.811,98.811c43.765,0,80.969-28.603,93.916-68.094l23.52-7.006c7.439-2.215,14.192-9.628,15.708-17.242   l14.589-73.351C265.883,94.306,280.887,77.758,280.887,57.761z M98.811,233.827c-38.76,0-70.18-31.419-70.18-70.179   c0-38.76,31.42-70.179,70.18-70.179c38.758,0,70.18,31.419,70.18,70.179c0,9.515-1.902,18.582-5.333,26.855l-11.886,3.54   c5.162-8.959,8.132-19.334,8.132-30.395c0-33.688-27.406-61.094-61.093-61.094c-33.688,0-61.095,27.406-61.095,61.094   s27.407,61.095,61.095,61.095c15.174,0,29.063-5.573,39.757-14.765c0.228,0.026,0.455,0.056,0.687,0.056   c0.566,0,1.143-0.081,1.715-0.252l14.123-4.207C142.297,222.723,121.851,233.827,98.811,233.827z M79.402,149.601   c-2.134,2.953-3.612,6.407-4.218,10.152H45.539c0.858-11.842,5.589-22.62,12.934-31.081L79.402,149.601z M63.898,123.256   c8.466-7.327,19.244-12.039,31.079-12.885v29.586c-3.745,0.607-7.201,2.088-10.154,4.223L63.898,123.256z M75.185,167.419   c0.605,3.745,2.084,7.2,4.218,10.153l-20.987,20.986c-7.338-8.48-12.054-19.279-12.886-31.14H75.185z M84.823,182.994   c2.953,2.135,6.409,3.615,10.154,4.223v29.71c-11.866-0.849-22.67-5.583-31.146-12.942L84.823,182.994z M81.457,163.586   c0-9.583,7.769-17.354,17.354-17.354c9.585,0,17.355,7.77,17.355,17.354c0,9.585-7.771,17.355-17.355,17.355   C89.226,180.941,81.457,173.171,81.457,163.586z M112.797,144.178c-2.953-2.134-6.408-3.614-10.153-4.221v-29.586   c11.835,0.846,22.612,5.558,31.077,12.884L112.797,144.178z M139.146,128.672c7.346,8.46,12.075,19.239,12.934,31.081h-29.642   c-0.606-3.746-2.085-7.201-4.22-10.154L139.146,128.672z M102.644,187.217c3.745-0.606,7.2-2.088,10.153-4.222l20.487,20.486   c-0.028,0.308-0.032,0.619-0.012,0.933c-8.396,7.11-18.999,11.681-30.629,12.513V187.217z M118.219,177.574   c2.135-2.953,3.613-6.409,4.22-10.155h29.651c-0.799,11.391-5.186,21.796-12.033,30.114l-1.447,0.432L118.219,177.574z    M241.555,85.094c-15.072,0-27.334-12.262-27.334-27.333s12.262-27.333,27.334-27.333c15.071,0,27.332,12.262,27.332,27.333   S256.626,85.094,241.555,85.094z" fill="#FFFFFF"/>
	<path d="M253.294,39.591c-1.194-0.831-2.838-0.541-3.672,0.654l-5.684,8.149c-0.764-0.195-1.559-0.31-2.383-0.31   c-5.336,0-9.678,4.341-9.678,9.677c0,5.336,4.342,9.677,9.678,9.677c5.335,0,9.676-4.341,9.676-9.677   c0-2.604-1.039-4.966-2.717-6.707l5.435-7.792C254.781,42.068,254.488,40.424,253.294,39.591z" fill="#FFFFFF"/>
</g>
<g>
</g>
<g>
</g>
<g>
</g>
<g>
</g>
<g>
</g>
<g>
</g>
<g>
</g>
<g>
</g>
<g>
</g>
<g>
</g>
<g>
</g>
<g>
</g>
<g>
</g>
<g>
</g>
<g>
</g>
</svg>
