<?xml version="1.0" encoding="iso-8859-1"?>
<!-- Generator: Adobe Illustrator 17.1.0, SVG Export Plug-In . SVG Version: 6.00 Build 0)  -->
<!DOCTYPE svg PUBLIC "-//W3C//DTD SVG 1.1//EN" "http://www.w3.org/Graphics/SVG/1.1/DTD/svg11.dtd">
<svg xmlns="http://www.w3.org/2000/svg" xmlns:xlink="http://www.w3.org/1999/xlink" version="1.1" id="Capa_1" x="0px" y="0px" viewBox="0 0 261 261" style="enable-background:new 0 0 261 261;" xml:space="preserve" width="512px" height="512px">
<g>
	<path d="M209.513,135.429c-1.024,0-2.075,0.146-3.124,0.436l-5.93,1.633l-7.588-18.485c-3.492-8.506-13.814-15.426-23.009-15.426   H91.014c-9.196,0-19.518,6.92-23.009,15.427l-7.576,18.454l-5.818-1.603c-1.049-0.289-2.1-0.436-3.124-0.436   c-5.609,0-9.681,4.286-9.681,10.19v0.217c0,6.092,4.383,11.173,10.16,12.272c-3.154,7.957-5.69,20.959-5.69,29.33v38.389   c0,6.893,5.607,12.5,12.5,12.5h7.202c6.892,0,12.5-5.607,12.5-12.5v-8.015h103.92v8.015c0,6.893,5.607,12.5,12.5,12.5h7.202   c6.893,0,12.5-5.607,12.5-12.5v-38.389c0-8.365-2.533-21.355-5.684-29.312c5.834-1.053,10.278-6.157,10.278-12.29v-0.217   C219.194,139.715,215.122,135.429,209.513,135.429z M68.466,150.301l12.054-29.362c2.088-5.088,8.297-9.251,13.797-9.251h72.242   c5.5,0,11.709,4.163,13.798,9.251l12.054,29.362c2.089,5.088-0.702,9.251-6.202,9.251H74.669   C69.169,159.552,66.378,155.389,68.466,150.301z M98.68,194.386c0,2.75-2.25,5-5,5H69.669c-2.75,0-5-2.25-5-5v-10.217   c0-2.75,2.25-5,5-5H93.68c2.75,0,5,2.25,5,5V194.386z M195.957,194.386c0,2.75-2.25,5-5,5h-24.011c-2.75,0-5-2.25-5-5v-10.217   c0-2.75,2.25-5,5-5h24.011c2.75,0,5,2.25,5,5V194.386z" fill="#FFFFFF"/>
	<path d="M243.5,22.672h-226c-9.649,0-17.5,7.851-17.5,17.5v189.46c0,4.142,3.358,7.5,7.5,7.5c4.142,0,7.5-3.358,7.5-7.5V40.172   c0-1.355,1.145-2.5,2.5-2.5h226c1.355,0,2.5,1.145,2.5,2.5v189.46c0,4.142,3.358,7.5,7.5,7.5c4.142,0,7.5-3.358,7.5-7.5V40.172   C261,30.522,253.15,22.672,243.5,22.672z" fill="#FFFFFF"/>
	<path d="M31.5,42.792c-2.761,0-5,2.239-5,5v3.5c0,2.761,2.239,5,5,5c2.761,0,5-2.239,5-5v-3.5   C36.5,45.031,34.261,42.792,31.5,42.792z" fill="#FFFFFF"/>
	<path d="M31.5,83.574c-2.761,0-5,2.239-5,5v6.365c0,2.761,2.239,5,5,5c2.761,0,5-2.239,5-5v-6.365   C36.5,85.813,34.261,83.574,31.5,83.574z" fill="#FFFFFF"/>
	<path d="M31.5,61.75c-2.761,0-5,2.239-5,5v6.365c0,2.761,2.239,5,5,5c2.761,0,5-2.239,5-5V66.75   C36.5,63.989,34.261,61.75,31.5,61.75z" fill="#FFFFFF"/>
	<path d="M31.5,105.398c-2.761,0-5,2.239-5,5v6.365c0,2.761,2.239,5,5,5c2.761,0,5-2.239,5-5v-6.365   C36.5,107.637,34.261,105.398,31.5,105.398z" fill="#FFFFFF"/>
	<path d="M31.5,127.222c-2.761,0-5,2.239-5,5v3.5c0,2.761,2.239,5,5,5c2.761,0,5-2.239,5-5v-3.5   C36.5,129.461,34.261,127.222,31.5,127.222z" fill="#FFFFFF"/>
	<path d="M71.1,56.292c2.761,0,5-2.239,5-5v-3.5c0-2.761-2.239-5-5-5c-2.761,0-5,2.239-5,5v3.5   C66.1,54.053,68.339,56.292,71.1,56.292z" fill="#FFFFFF"/>
	<path d="M66.1,78.181c0,2.761,2.239,5,5,5c2.761,0,5-2.239,5-5v-7.843c0-2.761-2.239-5-5-5c-2.761,0-5,2.239-5,5V78.181z" fill="#FFFFFF"/>
	<path d="M66.1,100.729c0,2.761,2.239,5,5,5c2.761,0,5-2.239,5-5v-3.5c0-2.761-2.239-5-5-5c-2.761,0-5,2.239-5,5V100.729z" fill="#FFFFFF"/>
	<path d="M189.9,56.292c2.761,0,5-2.239,5-5v-3.5c0-2.761-2.239-5-5-5c-2.761,0-5,2.239-5,5v3.5   C184.9,54.053,187.139,56.292,189.9,56.292z" fill="#FFFFFF"/>
	<path d="M184.9,78.181c0,2.761,2.239,5,5,5c2.761,0,5-2.239,5-5v-7.843c0-2.761-2.239-5-5-5c-2.761,0-5,2.239-5,5V78.181z" fill="#FFFFFF"/>
	<path d="M184.9,100.729c0,2.761,2.239,5,5,5c2.761,0,5-2.239,5-5v-3.5c0-2.761-2.239-5-5-5c-2.761,0-5,2.239-5,5V100.729z" fill="#FFFFFF"/>
	<path d="M150.3,56.292c2.761,0,5-2.239,5-5v-3.5c0-2.761-2.239-5-5-5c-2.761,0-5,2.239-5,5v3.5   C145.3,54.053,147.539,56.292,150.3,56.292z" fill="#FFFFFF"/>
	<path d="M145.3,72.93c0,2.761,2.239,5,5,5c2.761,0,5-2.239,5-5v-6.311c0-2.761-2.239-5-5-5c-2.761,0-5,2.239-5,5V72.93z" fill="#FFFFFF"/>
	<path d="M145.3,91.757c0,2.761,2.239,5,5,5c2.761,0,5-2.239,5-5v-3.5c0-2.761-2.239-5-5-5c-2.761,0-5,2.239-5,5V91.757z" fill="#FFFFFF"/>
	<path d="M110.7,56.292c2.761,0,5-2.239,5-5v-3.5c0-2.761-2.239-5-5-5c-2.761,0-5,2.239-5,5v3.5   C105.7,54.053,107.939,56.292,110.7,56.292z" fill="#FFFFFF"/>
	<path d="M105.7,72.93c0,2.761,2.239,5,5,5c2.761,0,5-2.239,5-5v-6.311c0-2.761-2.239-5-5-5c-2.761,0-5,2.239-5,5V72.93z" fill="#FFFFFF"/>
	<path d="M105.7,91.757c0,2.761,2.239,5,5,5c2.761,0,5-2.239,5-5v-3.5c0-2.761-2.239-5-5-5c-2.761,0-5,2.239-5,5V91.757z" fill="#FFFFFF"/>
	<path d="M229.5,42.792c-2.761,0-5,2.239-5,5v3.5c0,2.761,2.239,5,5,5c2.761,0,5-2.239,5-5v-3.5   C234.5,45.031,232.261,42.792,229.5,42.792z" fill="#FFFFFF"/>
	<path d="M229.5,105.398c-2.761,0-5,2.239-5,5v6.365c0,2.761,2.239,5,5,5c2.761,0,5-2.239,5-5v-6.365   C234.5,107.637,232.261,105.398,229.5,105.398z" fill="#FFFFFF"/>
	<path d="M229.5,83.574c-2.761,0-5,2.239-5,5v6.365c0,2.761,2.239,5,5,5c2.761,0,5-2.239,5-5v-6.365   C234.5,85.813,232.261,83.574,229.5,83.574z" fill="#FFFFFF"/>
	<path d="M229.5,61.75c-2.761,0-5,2.239-5,5v6.365c0,2.761,2.239,5,5,5c2.761,0,5-2.239,5-5V66.75   C234.5,63.989,232.261,61.75,229.5,61.75z" fill="#FFFFFF"/>
	<path d="M229.5,127.222c-2.761,0-5,2.239-5,5v3.5c0,2.761,2.239,5,5,5c2.761,0,5-2.239,5-5v-3.5   C234.5,129.461,232.261,127.222,229.5,127.222z" fill="#FFFFFF"/>
</g>
<g>
</g>
<g>
</g>
<g>
</g>
<g>
</g>
<g>
</g>
<g>
</g>
<g>
</g>
<g>
</g>
<g>
</g>
<g>
</g>
<g>
</g>
<g>
</g>
<g>
</g>
<g>
</g>
<g>
</g>
</svg>
