<?xml version="1.0" encoding="iso-8859-1"?>
<!-- Generator: Adobe Illustrator 17.1.0, SVG Export Plug-In . SVG Version: 6.00 Build 0)  -->
<!DOCTYPE svg PUBLIC "-//W3C//DTD SVG 1.1//EN" "http://www.w3.org/Graphics/SVG/1.1/DTD/svg11.dtd">
<svg xmlns="http://www.w3.org/2000/svg" xmlns:xlink="http://www.w3.org/1999/xlink" version="1.1" id="Capa_1" x="0px" y="0px" viewBox="0 0 211.737 211.737" style="enable-background:new 0 0 211.737 211.737;" xml:space="preserve" width="512px" height="512px">
<path d="M201.488,151.989c-6.61-6.61-15.399-10.25-24.748-10.25c-4.867,0-9.579,0.995-13.914,2.874  c-0.467-0.693-1.001-1.355-1.613-1.967l-43.71-43.711l50.386-50.386c0.764,0.141,1.542,0.222,2.331,0.222c0,0,0,0,0.001,0  c3.719,0,7.311-1.545,10.113-4.348l10.35-10.349c0.214-0.213,0.938-1.003,1.308-2.214c0.558-1.829,0.042-3.715-1.417-5.172  l-11.341-11.341c-1.368-1.369-2.8-1.656-3.76-1.656c-2.061,0-3.449,1.286-3.706,1.543l-10.313,10.31  c-3.563,3.565-4.952,8.189-4.146,12.469l-50.364,50.363l-39.709-39.71c1.81-4.268,2.765-8.894,2.765-13.669  c0-9.349-3.642-18.138-10.253-24.748C53.137,3.641,44.349,0,35.002,0c-3.12,0-6.225,0.415-9.229,1.233  c-1.316,0.359-2.393,1.443-2.743,2.761c-0.358,1.348,0.046,2.73,1.1,3.784c0,0,12.342,12.437,16.472,16.566  c0.433,0.432,0.431,1.465,0.37,1.836l-0.039,0.272c-0.445,4.858-1.333,10.76-2.019,12.475c-1.728,0.706-7.727,1.606-12.665,2.048  l-0.208,0.027c-0.037,0.005-0.106,0.01-0.197,0.01c-0.498,0-1.231-0.14-1.897-0.806C19.647,35.91,7.79,24.139,7.79,24.139  c-1.063-1.063-2.155-1.286-2.884-1.286c-1.692,0-3.209,1.223-3.691,2.982C-2.049,37.916,1.413,50.91,10.25,59.747  c6.61,6.61,15.399,10.251,24.749,10.251c4.774,0,9.401-0.955,13.668-2.765l39.71,39.71l-21.83,21.83  c-1.846-0.886-3.877-1.368-5.99-1.368c-3.702,0-7.174,1.434-9.776,4.036l-4.945,4.945c-0.012,0.012-0.021,0.024-0.032,0.036  c-0.274-0.016-0.547-0.04-0.824-0.04c-3.702,0-7.174,1.434-9.776,4.036L7.815,167.805c-5.391,5.391-5.391,14.163,0,19.554  l10.705,10.705c2.603,2.604,6.074,4.037,9.776,4.037c3.702,0,7.174-1.434,9.776-4.036l27.387-27.386  c2.907-2.907,4.231-6.795,4.004-10.608c0.009-0.008,0.019-0.016,0.027-0.024l4.945-4.945c4.26-4.259,5.14-10.623,2.669-15.768  l21.83-21.831l43.711,43.71c0.613,0.613,1.276,1.157,1.98,1.63c-5.515,12.787-3.066,28.214,7.364,38.645  c6.609,6.609,15.398,10.249,24.747,10.249c0,0,0.001,0,0.002,0c3.118,0,6.223-0.414,9.229-1.233c1.316-0.36,2.393-1.445,2.742-2.763  c0.356-1.347-0.047-2.729-1.101-3.781c0,0-12.342-12.438-16.473-16.568c-0.433-0.432-0.431-1.465-0.37-1.837l0.038-0.27  c0.446-4.859,1.336-10.762,2.021-12.475c1.727-0.707,7.725-1.606,12.665-2.047l0.208-0.027c0.037-0.005,0.105-0.01,0.198-0.01  c0.498,0,1.232,0.14,1.896,0.805c4.298,4.297,16.155,16.067,16.154,16.066c1.064,1.063,2.156,1.287,2.885,1.287  c1.697,0,3.214-1.226,3.689-2.981C213.787,173.823,210.326,160.828,201.488,151.989z" fill="#FFFFFF"/>
<g>
</g>
<g>
</g>
<g>
</g>
<g>
</g>
<g>
</g>
<g>
</g>
<g>
</g>
<g>
</g>
<g>
</g>
<g>
</g>
<g>
</g>
<g>
</g>
<g>
</g>
<g>
</g>
<g>
</g>
</svg>
