<?xml version="1.0" encoding="iso-8859-1"?>
<!-- Generator: Adobe Illustrator 17.1.0, SVG Export Plug-In . SVG Version: 6.00 Build 0)  -->
<!DOCTYPE svg PUBLIC "-//W3C//DTD SVG 1.1//EN" "http://www.w3.org/Graphics/SVG/1.1/DTD/svg11.dtd">
<svg xmlns="http://www.w3.org/2000/svg" xmlns:xlink="http://www.w3.org/1999/xlink" version="1.1" id="Capa_1" x="0px" y="0px" viewBox="0 0 228.578 228.578" style="enable-background:new 0 0 228.578 228.578;" xml:space="preserve" width="512px" height="512px">
<g>
	<path d="M219.17,95.17c-0.995,0-2.017,0.143-3.036,0.423l-11.535,3.178l-11.979-29.18c-3.394-8.266-13.425-14.992-22.36-14.992   h-30.554c-1.052-13.106-12.045-23.451-25.417-23.451c-13.372,0-24.365,10.345-25.417,23.451H58.156   c-8.937,0-18.967,6.726-22.359,14.992l-11.962,29.14l-11.391-3.138c-1.019-0.281-2.041-0.423-3.036-0.423   C3.957,95.17,0,99.335,0,105.073v6.802c0,6.698,5.449,12.147,12.147,12.147h1.305l-1.933,4.708   c-3.153,7.68-5.719,20.683-5.719,28.985v57.969c0,6.698,5.449,12.147,12.147,12.147h15.866c6.698,0,12.147-5.449,12.147-12.147   v-14.477h136.494v14.477c0,6.698,5.449,12.147,12.148,12.147h15.865c6.698,0,12.147-5.449,12.147-12.147v-57.969   c0-8.302-2.565-21.305-5.719-28.985l-1.933-4.708h1.466c6.698,0,12.147-5.449,12.147-12.147v-6.802   C228.578,99.335,224.621,95.17,219.17,95.17z M32.545,117.424l18.119-44.137c2.03-4.944,8.063-8.99,13.408-8.99h100.272   c5.345,0,11.379,4.045,13.408,8.99l18.12,44.137c2.029,4.944-0.683,8.99-6.027,8.99H38.572   C33.228,126.414,30.515,122.369,32.545,117.424z M72.993,173.25c0,2.672-2.187,4.859-4.859,4.859h-34.42   c-2.673,0-4.859-2.186-4.859-4.859v-16.52c0-2.672,2.187-4.859,4.859-4.859h34.42c2.673,0,4.859,2.187,4.859,4.859V173.25z    M199.236,173.25c0,2.672-2.186,4.859-4.858,4.859h-34.422c-2.672,0-4.858-2.186-4.858-4.859v-16.52   c0-2.672,2.187-4.859,4.858-4.859h34.422c2.672,0,4.858,2.187,4.858,4.859V173.25z" fill="#FFFFFF"/>
	<path d="M114.208,21.491c2.209,0,4-1.791,4-4V4.746c0-2.209-1.791-4-4-4s-4,1.791-4,4v12.745   C110.208,19.7,111.999,21.491,114.208,21.491z" fill="#FFFFFF"/>
	<path d="M79.953,21.071l10.006,6.741c0.687,0.462,1.463,0.683,2.231,0.683c1.286,0,2.549-0.619,3.321-1.766   c1.234-1.832,0.75-4.318-1.082-5.552l-10.006-6.741c-1.836-1.235-4.319-0.749-5.553,1.083   C77.637,17.351,78.121,19.836,79.953,21.071z" fill="#FFFFFF"/>
	<path d="M136.226,28.495c0.768,0,1.546-0.221,2.231-0.683l10.006-6.741c1.832-1.234,2.316-3.72,1.082-5.552   c-1.234-1.832-3.72-2.317-5.553-1.083l-10.006,6.741c-1.832,1.234-2.316,3.72-1.082,5.552   C133.677,27.875,134.939,28.495,136.226,28.495z" fill="#FFFFFF"/>
</g>
<g>
</g>
<g>
</g>
<g>
</g>
<g>
</g>
<g>
</g>
<g>
</g>
<g>
</g>
<g>
</g>
<g>
</g>
<g>
</g>
<g>
</g>
<g>
</g>
<g>
</g>
<g>
</g>
<g>
</g>
</svg>
