<?xml version="1.0" encoding="iso-8859-1"?>
<!-- Generator: Adobe Illustrator 17.1.0, SVG Export Plug-In . SVG Version: 6.00 Build 0)  -->
<!DOCTYPE svg PUBLIC "-//W3C//DTD SVG 1.1//EN" "http://www.w3.org/Graphics/SVG/1.1/DTD/svg11.dtd">
<svg xmlns="http://www.w3.org/2000/svg" xmlns:xlink="http://www.w3.org/1999/xlink" version="1.1" id="Capa_1" x="0px" y="0px" viewBox="0 0 283.118 283.118" style="enable-background:new 0 0 283.118 283.118;" xml:space="preserve" width="512px" height="512px">
<g>
	<path d="M76.241,76.6c-0.072,0.094-0.737,0.917-2.043,0.917c-6.069,0.002-22.757,0.064-22.759,0.064   c-1.542,0-2.82,0.678-3.507,1.858c-0.82,1.413-0.508,2.979,0.063,3.98c6.227,10.837,17.849,17.569,30.33,17.569h0.004   c14.639,0,27.196-9.05,32.395-21.846l82.801,0.001c0.864,0,1.716-0.085,2.546-0.247c5.135,12.925,17.76,22.092,32.493,22.093   c12.509,0,24.143-6.754,30.366-17.633c0.674-1.185,0.667-2.71-0.018-3.887c-0.699-1.201-1.958-1.89-3.447-1.89   c0,0-17.498-0.068-23.335-0.068c-0.609,0-1.337-0.73-1.557-1.036l-0.164-0.218c-3.117-3.745-6.658-8.541-7.384-10.234   c0.721-1.719,4.322-6.592,7.499-10.393l0.168-0.223c0.006-0.009,0.688-0.86,2-0.86c6.073-0.001,22.767-0.063,22.756-0.063   c1.545,0,2.825-0.68,3.512-1.864c0.82-1.416,0.506-2.979-0.064-3.975c-6.226-10.838-17.848-17.57-30.33-17.571   c-14.732,0.001-27.356,9.168-32.494,22.093c-0.831-0.162-1.683-0.247-2.549-0.247l-82.801-0.002   c-5.199-12.794-17.758-21.842-32.399-21.842c-12.507,0-24.14,6.753-30.36,17.626c-0.676,1.183-0.67,2.708,0.014,3.887   c0.699,1.205,1.961,1.896,3.45,1.896c0,0,17.245,0.066,23.206,0.066h0.129c0.608,0,1.334,0.729,1.553,1.034l0.166,0.222   c3.117,3.745,6.659,8.54,7.387,10.235c-0.722,1.72-4.322,6.591-7.498,10.39L76.241,76.6z M193.525,76.383L193.525,76.383   L193.525,76.383L193.525,76.383z" fill="#FFFFFF"/>
	<path d="M281.295,147.31c-1.914-2.185-5.132-2.892-8.534-1.824l-16.759,5.262c-0.85,0.266-1.779,0.401-2.765,0.401   c-3.662,0-7.388-1.804-9.271-4.489l-22.107-31.505c-3.343-4.763-10.52-8.494-16.339-8.494H101.324   c-5.777,0-13.119,3.543-16.714,8.066l-26.238,33.019c-2.912,3.665-9.228,7.634-13.792,8.668l-25.254,5.723   c-5.842,1.324-11.182,6.991-12.155,12.902l-7.019,42.613c-0.501,3.039,0.252,5.925,2.119,8.125   c1.868,2.201,4.594,3.413,7.675,3.413h29.136c3.842,13.186,16.029,22.854,30.438,22.854s26.597-9.667,30.438-22.854h68.463   c3.842,13.186,16.029,22.854,30.438,22.854s26.597-9.667,30.439-22.854h32.608c6.114,0,11.747-4.931,12.556-10.991l8.555-64.082   C283.379,151.409,282.766,148.991,281.295,147.31z M69.519,236.086c-8.697,0-15.748-7.052-15.748-15.749   c0-8.698,7.051-15.75,15.748-15.75c8.699,0,15.748,7.052,15.748,15.75C85.267,229.034,78.219,236.086,69.519,236.086z    M174.047,156.474H79.931c-4.143,0-5.408-2.642-2.812-5.869l18.502-23.003c2.597-3.229,8.11-5.869,12.253-5.869h66.173V156.474z    M198.859,236.086c-8.697,0-15.75-7.052-15.75-15.749c0-8.698,7.053-15.75,15.75-15.75s15.748,7.052,15.748,15.75   C214.607,229.034,207.557,236.086,198.859,236.086z M221.825,156.474H192.17v-34.741h4.993c4.143,0,9.494,2.764,11.893,6.142   l15.941,22.458C227.395,153.71,225.968,156.474,221.825,156.474z" fill="#FFFFFF"/>
</g>
<g>
</g>
<g>
</g>
<g>
</g>
<g>
</g>
<g>
</g>
<g>
</g>
<g>
</g>
<g>
</g>
<g>
</g>
<g>
</g>
<g>
</g>
<g>
</g>
<g>
</g>
<g>
</g>
<g>
</g>
</svg>
